# xmcd
#
# Track frame offsets: 
#        150
#        14400
#        27862
#        47362
#        61032
#        77970
#        96157
#        106607
#        118787
#        133512
#        150825
#
# Disc length: 2275 seconds
#
# Revision: 0
# Processed by: cddbd v1.5.1PL0 Copyright (c) Steve Scherf et al.
# Submitted via: ExactAudioCopy v0.95a5
#
DISCID=7608e10b
DTITLE=New West - New West
DYEAR=1997
DGENRE=Country
TTITLE0=My Heart Ain't Talkin'
TTITLE1=Porch Light
TTITLE2=The Finer Things In Life
TTITLE3=I'm Not Bound To Leave
TTITLE4=She Reminds Me Of You
TTITLE5=Promise Land
TTITLE6=The Ice Your Walkin' On
TTITLE7=Dance With Me Cowgirl
TTITLE8=Love Goes On
TTITLE9=Good Love After Bad
TTITLE10=When I Have To Call
EXTD=
EXTT0=
EXTT1=
EXTT2=
EXTT3=
EXTT4=
EXTT5=
EXTT6=
EXTT7=
EXTT8=
EXTT9=
EXTT10=
PLAYORDER=
